<?xml version="1.0" ?><svg viewBox="3060 366 120 120" xmlns="http://www.w3.org/2000/svg"><defs><style>
      .cls-1 {
        fill: #00aaf1;
      }

      .cls-2 {
        fill: #fff;
      }
    </style></defs><g data-name="Group 4" id="Group_4" transform="translate(2986 308)"><circle class="cls-1" cx="60" cy="60" data-name="Ellipse 3" id="Ellipse_3" r="60" transform="translate(74 58)"/><path class="cls-2" d="M512.719,65.429S504.5,52,514.7,42s26.019-1.671,26.019-1.671S559.7,36.1,571.2,51.7s5.819,30.729,5.819,30.729S583.6,94.5,573.9,103.1s-21.581,1.129-21.581,1.129S534.1,109.6,520.6,96.1,512.719,65.429,512.719,65.429Z" data-name="Path 4" id="Path_4" transform="translate(-410.119 45.271)"/><path class="cls-1" d="M578.5,162.8s-5-6.5-8.2,1c-.741,3.359,3.475,10.5,11.8,13s16.6-.9,16.6-.9,11.7-4.6,10.1-14.2S598,151.2,598,151.2s-13.3-2.3-16.6-5.9,3.1-6.5,3.1-6.5,5.35-1.125,8.6,0,6.1,5.6,6.1,5.6,4.7,4.8,7.1,0c.823-1.646.975-3.425-.8-6.2s-6.3-4.9-6.3-4.9a26.078,26.078,0,0,0-11.5-1.8c-5.95.6-9.492,1.673-12.3,4.2a10.986,10.986,0,0,0-3.3,12,18.1,18.1,0,0,0,7.4,7.3c5.05,2.55,12.5,3,12.5,3s8.7,1.9,6.7,7.5-9.3,4.9-9.3,4.9-3.875.4-6.6-1.5S578.5,162.8,578.5,162.8Z" data-name="Path 5" id="Path_5" transform="translate(-455.717 -36.904)"/></g></svg>