<?xml version="1.0" encoding="UTF-8"?>
<!DOCTYPE svg PUBLIC "-//W3C//DTD SVG 1.1//EN" "http://www.w3.org/Graphics/SVG/1.1/DTD/svg11.dtd">
<!-- Creator: CorelDRAW X8 -->
<svg xmlns="http://www.w3.org/2000/svg" xml:space="preserve" width="186.709mm" height="209.904mm" version="1.1" style="shape-rendering:geometricPrecision; text-rendering:geometricPrecision; image-rendering:optimizeQuality; fill-rule:evenodd; clip-rule:evenodd"
viewBox="0 0 10962 12324"
 xmlns:xlink="http://www.w3.org/1999/xlink">
 <defs>
  <style type="text/css">
   <![CDATA[
    .str0 {stroke:#2B2A29;stroke-width:11.7423}
    .str1 {stroke:#C5C6C6;stroke-width:176.135;stroke-linecap:round}
    .fil4 {fill:none}
    .fil5 {fill:#C5C6C6}
    .fil1 {fill:#898989}
    .fil0 {fill:#5B5B5B}
    .fil3 {fill:#C5C6C6}
    .fil2 {fill:#EBECEC}
   ]]>
  </style>
 </defs>
 <g id="Слой_x0020_1">
  <metadata id="CorelCorpID_0Corel-Layer"/>
  <path class="fil0" d="M6860 5799l4010 1770c22,9 86,-79 91,-42 4,16 -5,193 -6,209 -3,40 -37,84 -92,123l-6262 4412c-100,70 -277,69 -360,4l-4178 -3275c-40,-31 -60,-66 -58,-101 2,-26 -18,-213 9,-235 13,-10 63,141 82,132l6405 -2993c111,-52 263,-46 359,-4z"/>
  <path class="fil1 str0" d="M6860 5595l4036 1856c96,44 67,133 -33,204l-6262 4412c-100,71 -277,69 -360,4l-4178 -3274c-83,-65 -78,-153 33,-205l6405 -2993c111,-52 263,-48 359,-4z"/>
  <path class="fil2" d="M6775 5723l3793 1813c45,21 33,66 -16,97l-5637 3604c-49,32 -131,32 -171,3l-3763 -2690c-40,-30 -36,-72 17,-98l5606 -2726c52,-26 126,-24 171,-3z"/>
  <circle class="fil3" transform="matrix(0.574137 0.35263 -0.617904 0.327653 2396.66 10063)" r="290"/>
  <circle class="fil2" transform="matrix(0.505561 0.310511 -0.5441 0.288517 2409.04 10070.6)" r="290"/>
  <path class="fil4 str1" d="M6484 6168c816,503 1503,854 2339,1115 141,216 470,266 781,450"/>
  <path class="fil4 str1" d="M6028 6493c192,147 1882,1025 2460,1419 123,84 304,54 381,108"/>
  <path class="fil4 str1" d="M5412 6680c805,422 1530,1122 2205,1418 65,29 305,306 668,394"/>
  <path class="fil4 str1" d="M4727 7042c248,118 2770,1613 2947,1864"/>
  <path class="fil4 str1" d="M4152 7343c238,136 2480,1589 2631,1636"/>
  <path class="fil4 str1" d="M3684 7626c219,191 1418,999 1740,1160"/>
  <path class="fil3" d="M5445 8843c132,-75 221,-190 334,-276 172,-130 564,-311 543,-356 -26,-59 -97,-126 -115,-175 116,70 101,111 181,174l222 -82c58,-5 94,-30 144,-42 113,-27 64,-9 53,-61 -43,-75 -107,-148 -165,-218 79,77 172,116 244,237 134,-19 248,-51 373,-75 126,-23 259,-42 388,-62 678,-106 500,4 506,-197 9,18 58,104 75,123l654 -50c83,-6 159,-2 223,-6 -209,22 -1065,74 -1176,115 205,33 372,64 589,120 -88,-23 -556,-104 -636,-110 -122,-9 -613,94 -708,116l-302 80c89,15 180,30 275,51 -127,-7 -190,-36 -281,-39 -93,-4 -311,91 -358,111 -118,51 -315,140 -367,208 362,-9 378,45 556,62 -216,-66 -287,-59 -459,-83 314,-112 1005,-181 1485,-243l-167 -39c223,36 160,44 305,30l681 -57 -475 -105c127,25 236,42 378,72 179,38 177,32 284,25 110,-8 344,-21 424,-38l-385 -87c411,63 344,102 598,66 123,-18 251,-52 309,-97l-422 -78c102,21 280,39 455,75 109,-94 266,-227 154,-363 -113,-26 -851,-69 -700,75 -72,-34 -29,-30 -149,-75 -164,17 -644,-12 -748,2 58,37 69,36 107,78 -71,-27 -107,-54 -152,-80 -262,-2 -505,-9 -745,4 33,49 103,103 99,148 -33,-38 -100,-112 -163,-148 -51,-2 -469,15 -486,23 -25,11 110,150 83,192 -1,-34 -97,-149 -160,-187 -115,-5 -496,43 -597,67 17,21 -3,2 32,28 15,12 21,15 38,27 39,27 55,35 70,62 -60,-26 -117,-73 -179,-103 -85,4 -149,34 -208,55 -54,19 -103,26 29,87 32,15 -2,2 23,10 340,154 313,130 554,294 -133,-84 -482,-239 -684,-341 -122,15 -184,95 -220,137 -82,95 -111,105 60,170 -43,-4 -11,8 -131,-38 -18,46 -16,97 -2,148 13,45 55,104 60,144 -77,-31 -78,-42 -196,-79l237 128 -73 -13c79,29 92,38 111,65 -84,-33 -479,-123 -272,-34 -94,-63 165,5 264,43 -435,312 -194,206 -319,385z"/>
  <path class="fil5" d="M5457 8876c-82,-387 -259,-858 -369,-1258 -169,-611 -332,-1619 -428,-1747 -122,-162 -282,-309 -384,-449 186,105 257,255 413,377l-54 -505c17,-78 -13,-198 -13,-289 0,-211 12,-98 -92,-258 -161,-199 -329,-370 -488,-539 183,171 297,196 560,517 26,-203 16,-432 29,-642 12,-212 38,-414 59,-618 109,-1068 235,-519 -143,-1184 39,50 223,279 268,325l204 -860c26,-108 68,-177 89,-260 -54,296 -346,1378 -318,1631 156,-110 290,-188 496,-235 -84,19 -450,253 -498,319 -73,100 -103,958 -105,1132l15 584c69,-46 138,-94 222,-125 -71,112 -155,84 -203,169 -50,87 30,630 47,745 43,294 121,793 226,1073 148,-416 258,-255 371,-390 -223,14 -242,113 -366,218 -68,-701 116,-1664 217,-2377l-149 51c170,-120 155,-29 195,-228l204 -911 -417 161c106,-54 188,-113 310,-166 153,-68 141,-84 176,-222 35,-142 118,-434 121,-576l-341 124c309,-229 351,-32 398,-420 23,-189 18,-436 -42,-645l-339 194c85,-42 200,-173 348,-241 -128,-423 -307,-1024 -616,-1351 -101,36 -518,682 -177,992 -98,-36 -71,-69 -211,-89 -42,231 -315,649 -338,803 98,61 100,45 197,142 -83,-13 -150,-62 -221,-100 -122,273 -246,511 -332,807 109,126 244,229 325,379 -87,-89 -257,-259 -354,-310 -26,48 -185,548 -178,592 11,65 336,376 403,543 -67,-113 -326,-385 -428,-442 -62,103 -144,669 -145,854 46,50 2,8 67,57 29,22 39,27 68,47 69,47 92,57 151,131 -76,-21 -193,-116 -277,-147 -31,105 -4,270 8,399 12,121 4,198 178,256 44,14 4,10 30,9 447,140 389,92 809,371 -219,-132 -672,-269 -956,-386 -28,179 94,506 157,681 142,398 148,461 349,492 -27,33 11,40 -131,16 79,171 176,335 279,485 92,136 223,284 300,408 -94,-18 -114,-53 -238,-47l350 165 -57 37c90,9 113,24 173,93 -102,-19 -451,108 -189,178 -161,-104 85,-159 202,-140 392,1483 302,881 583,1600z"/>
 </g>
</svg>
