<?xml version="1.0" encoding="UTF-8"?>
<!DOCTYPE svg PUBLIC "-//W3C//DTD SVG 1.1//EN" "http://www.w3.org/Graphics/SVG/1.1/DTD/svg11.dtd">
<!-- Creator: CorelDRAW X8 -->
<svg xmlns="http://www.w3.org/2000/svg" xml:space="preserve" width="186.709mm" height="209.904mm" version="1.1" style="shape-rendering:geometricPrecision; text-rendering:geometricPrecision; image-rendering:optimizeQuality; fill-rule:evenodd; clip-rule:evenodd"
viewBox="0 0 3732 4196"
 xmlns:xlink="http://www.w3.org/1999/xlink">
 <defs>
  <style type="text/css">
   <![CDATA[
    .str0 {stroke:#2B2A29;stroke-width:3.99791}
    .str1 {stroke:#C5C6C6;stroke-width:59.9686;stroke-linecap:round}
    .fil4 {fill:none}
    .fil1 {fill:black}
    .fil0 {fill:#5B5B5B}
    .fil3 {fill:#C5C6C6}
    .fil2 {fill:#EBECEC}
    .fil5 {fill:red}
   ]]>
  </style>
 </defs>
 <g id="Слой_x0020_1">
  <metadata id="CorelCorpID_0Corel-Layer"/>
  <path class="fil0" d="M2336 1974l1365 603c7,3 29,-27 31,-14 1,5 -2,65 -2,71 -1,14 -13,28 -31,42l-2133 1502c-34,24 -94,23 -122,1l-1423 -1115c-13,-10 -20,-22 -19,-34 1,-9 -6,-73 3,-80 4,-4 21,48 28,45l2180 -1019c38,-18 90,-16 123,-2z"/>
  <path class="fil1 str0" d="M2336 1905l1374 632c32,15 23,45 -11,69l-2133 1503c-34,24 -94,23 -122,1l-1423 -1115c-28,-22 -26,-52 12,-70l2180 -1019c38,-17 90,-16 123,-1z"/>
  <path class="fil2" d="M2307 1949l1291 617c15,7 11,22 -6,33l-1918 1227c-17,11 -45,11 -59,1l-1281 -916c-14,-10 -12,-25 6,-33l1908 -929c18,-8 43,-8 59,0z"/>
  <circle class="fil3" transform="matrix(0.574137 0.35263 -0.617904 0.327653 815.991 3426.15)" r="99"/>
  <circle class="fil2" transform="matrix(0.505561 0.310511 -0.5441 0.288517 820.207 3428.74)" r="99"/>
  <path class="fil4 str1" d="M2208 2100c278,171 511,291 796,380 48,73 160,90 266,153"/>
  <path class="fil4 str1" d="M2052 2211c66,50 641,349 838,483 42,28 103,18 130,37"/>
  <path class="fil4 str1" d="M1843 2274c274,144 520,382 750,483 23,10 104,104 228,134"/>
  <path class="fil4 str1" d="M1609 2398c85,40 944,549 1004,634"/>
  <path class="fil4 str1" d="M1414 2500c81,46 844,541 895,557"/>
  <path class="fil4 str1" d="M1254 2597c75,65 483,339 593,394"/>
  <path class="fil3" d="M1854 3011c45,-26 75,-65 113,-94 59,-45 192,-106 186,-121 -9,-20 -33,-43 -40,-60 40,24 35,38 62,59l76 -28c19,-1 32,-10 48,-14 39,-9 22,-3 19,-21 -15,-25 -37,-50 -56,-74 26,26 58,39 83,81 45,-7 84,-18 127,-26 43,-8 88,-14 132,-21 231,-36 170,1 172,-67 3,6 20,35 25,42l223 -17c28,-2 54,-1 76,-2 -71,7 -363,25 -400,39 69,11 126,22 200,41 -30,-8 -189,-35 -216,-37 -42,-4 -209,31 -242,39l-102 27c30,5 61,10 93,18 -43,-3 -64,-13 -95,-14 -32,-1 -106,31 -122,38 -41,17 -107,48 -125,71 123,-3 128,15 189,21 -73,-23 -97,-20 -156,-28 107,-38 342,-62 505,-83l-57 -13c76,12 55,15 104,10l232 -19 -161 -36c43,8 80,14 128,24 61,13 61,11 97,9 37,-3 117,-7 144,-13l-131 -30c140,22 117,35 204,23 42,-6 85,-18 105,-33l-143 -27c34,7 95,13 154,25 37,-31 91,-77 53,-123 -39,-9 -290,-23 -239,26 -24,-12 -10,-11 -50,-26 -56,6 -220,-4 -255,1 20,12 24,12 36,26 -24,-9 -36,-18 -51,-27 -89,-1 -172,-3 -254,1 11,17 35,36 34,51 -12,-13 -34,-38 -56,-51 -17,0 -160,5 -165,8 -9,4 37,51 28,66 0,-12 -33,-51 -55,-64 -39,-2 -168,15 -203,23 6,7 -1,0 11,9 5,4 7,5 13,9 13,10 19,12 24,22 -20,-9 -40,-25 -61,-35 -29,1 -51,11 -71,18 -18,7 -35,9 10,30 11,5 -1,1 8,3 116,53 106,45 189,100 -46,-28 -164,-81 -233,-116 -42,5 -63,33 -75,47 -28,32 -38,35 20,58 -15,-2 -4,3 -44,-13 -7,16 -6,33 -1,50 4,16 19,36 20,49 -26,-10 -26,-14 -67,-27l81 44 -25 -4c27,9 32,12 38,22 -29,-12 -163,-42 -92,-12 -32,-21 56,2 89,15 -148,106 -65,70 -108,131z"/>
  <path class="fil5" d="M1858 3022c-28,-132 -88,-292 -126,-428 -57,-208 -113,-552 -145,-595 -42,-55 -96,-105 -131,-153 63,36 87,87 140,128l-18 -172c6,-26 -4,-67 -4,-98 0,-72 4,-33 -32,-88 -55,-68 -112,-126 -166,-183 62,58 101,67 191,176 9,-69 5,-147 10,-219 4,-72 13,-141 20,-210 37,-364 80,-177 -49,-403 13,17 76,95 91,110l70 -293c9,-36 23,-60 30,-88 -18,101 -118,469 -108,555 53,-37 99,-64 169,-80 -29,7 -153,86 -170,109 -25,34 -35,326 -35,385l5 199c23,-16 47,-32 75,-42 -24,38 -53,28 -69,57 -17,30 10,215 16,254 15,100 41,270 77,365 50,-142 88,-87 126,-133 -76,5 -82,39 -124,75 -24,-239 39,-567 74,-810l-51 18c58,-41 53,-10 66,-78l70 -310 -142 54c36,-18 64,-38 105,-56 52,-23 48,-29 60,-76 12,-48 40,-147 41,-196l-116 43c105,-78 120,-11 136,-143 8,-65 6,-149 -14,-220l-116 66c29,-14 68,-59 118,-82 -43,-144 -104,-349 -209,-460 -35,12 -177,232 -61,338 -33,-13 -24,-24 -71,-31 -15,79 -108,221 -115,274 33,21 34,15 67,48 -29,-4 -52,-21 -76,-34 -41,93 -83,174 -112,275 36,43 82,78 110,129 -29,-30 -87,-88 -120,-106 -9,17 -64,187 -61,202 4,22 114,128 137,185 -23,-39 -111,-131 -145,-151 -22,35 -50,228 -50,291 16,17 1,3 23,20 10,7 13,9 23,16 23,16 31,19 51,44 -26,-7 -65,-40 -94,-50 -10,36 -1,92 3,136 4,41 1,67 61,87 14,5 1,3 10,3 152,48 132,31 275,126 -74,-44 -229,-91 -326,-131 -9,61 33,172 54,232 48,135 50,157 119,167 -9,12 4,14 -45,6 27,58 60,114 95,165 32,46 76,97 102,139 -31,-6 -39,-18 -81,-16l119 56 -19 13c31,3 39,8 59,31 -35,-6 -154,37 -64,61 -55,-36 29,-54 68,-48 134,505 103,300 199,545z"/>
 </g>
</svg>
